<svg width="50" height="50" viewBox="0 0 50 50" fill="none" xmlns="http://www.w3.org/2000/svg">
<rect width="50" height="50" fill="#F2DECB"/>
<path d="M23.5105 23.5026C27.0249 19.9913 32.2339 19.4843 35.1228 22.3776C38.0132 25.2681 37.5096 30.4778 33.9969 33.9909C32.3095 35.6783 30.1839 36.7316 28.0105 36.9567C27.7211 36.9852 27.4345 36.9997 27.1541 36.9997C25.2853 36.9997 23.6155 36.3447 22.3855 35.1149C20.9696 33.7004 20.3157 31.7015 20.5467 29.4889C20.7703 27.3156 21.8232 25.19 23.5105 23.5026ZM34.9431 22.5583C34.6185 22.9498 34.3222 23.3602 34.0271 23.7692C33.4486 24.5711 32.8732 25.3678 32.0916 26.0104C30.8777 27.0085 29.5464 27.3946 28.0867 27.817C28.035 27.832 27.9825 27.8469 27.9305 27.862C24.5932 28.8311 22.9433 31.6527 22.5623 34.9362C22.891 34.5412 23.1924 34.1312 23.492 33.7233C24.1423 32.8378 24.7857 31.9622 25.6873 31.2731C26.8392 30.3942 28.0853 30.0459 29.4412 29.6754C32.852 28.7395 34.5456 25.8941 34.9431 22.5583ZM14.8767 14.8776C17.7657 11.9857 22.9747 12.4912 26.489 16.0026C27.425 16.9386 28.1426 18.0155 28.6541 19.154C26.9741 19.4435 25.3461 20.1454 23.9031 21.1999C23.3542 20.8549 22.7555 20.5595 22.0672 20.36C20.5478 19.919 19.1629 19.5444 17.906 18.5094C16.7273 17.539 16.0183 16.2142 15.0555 15.0563C15.4515 18.3923 17.1465 21.2375 20.5574 22.1735C21.1333 22.331 21.6851 22.4932 22.2234 22.6852C20.5976 24.3981 19.5267 26.4846 19.1531 28.6549C18.0146 28.1419 16.9358 27.4269 15.9998 26.4909C12.4915 22.9778 11.9863 17.7681 14.8767 14.8776Z" fill="#0E8784"/>
</svg>
