<svg width="50" height="50" viewBox="0 0 50 50" fill="none" xmlns="http://www.w3.org/2000/svg">
<rect width="50" height="50" fill="#4E1853"/>
<path d="M26 12C32.0806 12 37.1858 16.1748 38.6064 21.8145H36.6436C36.549 22.3303 36.3598 22.7444 36.0762 23.0566C35.7925 23.3689 35.3802 23.5244 34.8398 23.5244C34.3536 23.5244 33.827 23.3955 33.2598 23.1377C32.6924 22.8798 32.077 22.5845 31.415 22.252C30.7532 21.9195 30.0204 21.628 29.2168 21.377C28.413 21.1258 27.5314 21 26.5723 21C24.8432 21 23.4821 21.7332 22.4893 23.1992C21.4964 24.6652 21 26.6539 21 29.165H25.3564C25.451 28.6628 25.6642 28.2556 25.9951 27.9434C26.3261 27.6312 26.7685 27.4756 27.3223 27.4756C27.7815 27.4756 28.288 27.6005 28.8418 27.8516C29.3956 28.1027 30.0172 28.398 30.7061 28.7373C31.3949 29.0766 32.1547 29.3719 32.9854 29.623C33.8162 29.8742 34.7188 30 35.6914 30C36.6951 29.9999 37.569 29.7232 38.3154 29.1729C36.5769 34.3056 31.72 38 26 38C18.8203 38 13 32.1797 13 25C13 17.8203 18.8203 12 26 12Z" fill="#F94F4F"/>
</svg>
