<svg width="12" height="12" viewBox="0 0 12 12" fill="none" xmlns="http://www.w3.org/2000/svg">
<path d="M6 0C7.51913 0 8.92953 0.568237 9.98242 1.52832C9.39692 1.1906 8.71681 1 8 1C6.90526 1 5.8945 1.46292 5.17871 2.17871C4.44187 2.8945 4 3.90526 4 5C4 6.09474 4.46292 7.1055 5.17871 7.82129C5.8945 8.55813 6.90526 9 8 9C9.09474 9 10.1055 8.53708 10.8213 7.82129C11.4377 7.20486 11.8644 6.36935 11.9717 5.4502C11.9889 5.63163 12 5.8149 12 6C12 7.64211 11.3051 9.15776 10.2314 10.2314C9.15776 11.3051 7.64211 12 6 12C4.35789 12 2.84224 11.3367 1.76855 10.2314C0.69487 9.15776 0 7.64211 0 6C0 4.35789 0.663292 2.84224 1.76855 1.76855C2.84224 0.69487 4.35789 0 6 0Z" fill="white"/>
</svg>
