<svg width="20" height="19" viewBox="0 0 20 19" fill="none" xmlns="http://www.w3.org/2000/svg">
<path d="M10 15.4375C10.3297 15.4375 10.6123 15.7325 10.6123 16.0762V17.9658C10.6123 18.3095 10.3297 18.6045 10 18.6045C9.67033 18.6045 9.3877 18.3095 9.3877 17.9658V16.0762C9.3877 15.7325 9.67033 15.4375 10 15.4375ZM4.54199 13.6543C4.81146 13.3931 5.24221 13.3932 5.51172 13.6543C5.78126 13.9157 5.78126 14.3343 5.51172 14.5957L4.0293 16.0332C3.7598 16.2943 3.32905 16.2944 3.05957 16.0332C2.79003 15.7718 2.79003 15.3532 3.05957 15.0918L4.54199 13.6543ZM14.4883 13.6543C14.7309 13.3932 15.1616 13.3931 15.458 13.6543L16.9404 15.0918C17.21 15.3532 17.21 15.7718 16.9404 16.0332C16.6709 16.2944 16.2402 16.2943 15.9707 16.0332L14.4883 14.5957C14.2187 14.3343 14.2187 13.9157 14.4883 13.6543ZM10 4.35449C11.3963 4.35449 12.6856 4.87891 13.5986 5.75391C14.5116 6.6039 15.1016 7.80452 15.1016 9.10449C15.1015 10.4043 14.5114 11.6042 13.5986 12.4541C12.6856 13.3041 11.3963 13.8545 10 13.8545C8.60365 13.8545 7.31436 13.3291 6.40137 12.4541C5.48857 11.6042 4.89854 10.4043 4.89844 9.10449C4.89844 7.80452 5.46156 6.6039 6.40137 5.75391C7.31436 4.90391 8.60365 4.35449 10 4.35449ZM2.60742 8.70801C2.96157 8.70813 3.26542 8.98226 3.26562 9.30176C3.26562 9.6214 2.96169 9.89538 2.60742 9.89551H0.658203C0.303829 9.89551 0 9.62147 0 9.30176C0.000205889 8.98219 0.303949 8.70801 0.658203 8.70801H2.60742ZM19.3418 8.70801C19.6961 8.70801 19.9998 8.98219 20 9.30176C20 9.62147 19.6962 9.89551 19.3418 9.89551H17.3926C17.0383 9.89538 16.7344 9.6214 16.7344 9.30176C16.7346 8.98226 17.0384 8.70813 17.3926 8.70801H19.3418ZM3.05957 2.57129C3.32909 2.30993 3.75976 2.30996 4.0293 2.57129L5.51172 4.00879C5.78126 4.27019 5.78126 4.6888 5.51172 4.9502C5.26915 5.21107 4.83832 5.21117 4.54199 4.9502L3.05957 3.51172C2.79007 3.25032 2.79004 2.83267 3.05957 2.57129ZM15.9707 2.57129C16.2402 2.30996 16.6709 2.30993 16.9404 2.57129C17.21 2.83267 17.2099 3.25032 16.9404 3.51172L15.458 4.9502C15.1886 5.21115 14.7577 5.21109 14.4883 4.9502C14.2187 4.6888 14.2187 4.27019 14.4883 4.00879L15.9707 2.57129ZM10 0C10.3297 1.7753e-07 10.6123 0.295003 10.6123 0.638672V2.52832C10.6123 2.87199 10.3297 3.16699 10 3.16699C9.67033 3.16699 9.3877 2.87199 9.3877 2.52832V0.638672C9.3877 0.295003 9.67033 0 10 0Z" fill="white"/>
</svg>
