<svg width="50" height="50" viewBox="0 0 50 50" fill="none" xmlns="http://www.w3.org/2000/svg">
<rect width="50" height="50" fill="#21427D"/>
<path d="M33.9863 22.4609C35.235 23.8922 35.9952 25.7611 36 27.8096C36.005 29.9789 35.1469 32.0614 33.6152 33.5977C32.0837 35.1339 30.0042 35.9983 27.835 36C25.7772 36.0016 23.8976 35.2408 22.46 33.9863C22.9802 34.0694 23.514 34.1143 24.0576 34.1143C24.3322 34.1142 24.604 34.0997 24.873 34.0781C26.6109 34.8996 28.6504 34.9773 30.4902 34.21C33.0738 33.1323 34.7532 30.603 34.7432 27.8037C34.7385 26.7558 34.4993 25.7636 34.0781 24.875C34.0998 24.6053 34.1142 24.3329 34.1143 24.0576C34.1143 23.5143 34.0693 22.9809 33.9863 22.4609ZM27.835 20.9141C30.5921 20.919 32.9701 22.5371 34.0781 24.875C33.6834 29.7776 29.7759 33.6844 24.873 34.0781C24.1706 33.7461 23.5168 33.2935 22.9463 32.7246C20.9642 30.7478 20.3698 27.7701 21.4404 25.1836C22.5112 22.5973 25.0358 20.9116 27.835 20.9141ZM24.0576 14C29.0685 14.0002 33.2214 17.6654 33.9863 22.4609C32.4852 20.7403 30.2771 19.653 27.8145 19.6572C23.3032 19.6652 19.6515 23.3276 19.6572 27.8389C19.6603 30.2924 20.7458 32.4906 22.46 33.9863C17.6649 33.221 14.0002 29.0682 14 24.0576C14 18.5032 18.5032 14 24.0576 14Z" fill="#3EE9E5"/>
</svg>
